<svg id="레이어_1" data-name="레이어 1" xmlns="http://www.w3.org/2000/svg" xmlns:xlink="http://www.w3.org/1999/xlink" viewBox="0 0 920 890"><defs><style>.cls-1{fill:#9ec7ff;}.cls-2{fill:#fff;}.cls-3{fill:#222;}.cls-4{fill:#77b0ff;}.cls-5{fill:#4f98ff;}.cls-6{fill:url(#무제_그라디언트_6);}.cls-7{fill:url(#무제_그라디언트_6-2);}.cls-8{fill:#2a84ff;}.cls-9{fill:url(#무제_그라디언트_6-3);}.cls-10{fill:#0069f8;}.cls-11{fill:url(#무제_그라디언트_6-4);}.cls-12{fill:#0055c6;}.cls-13{fill:url(#무제_그라디언트_6-5);}.cls-14{fill:#06377a;}.cls-15{fill:url(#무제_그라디언트_6-6);}</style><linearGradient id="무제_그라디언트_6" x1="421" y1="1135.17" x2="421" y2="1108.17" gradientTransform="matrix(1, 0, 0, -1, 539, 1324.5)" gradientUnits="userSpaceOnUse"><stop offset="0" stop-color="#fff" stop-opacity="0.4"/><stop offset="1" stop-color="#ddd"/></linearGradient><linearGradient id="무제_그라디언트_6-2" x1="421" y1="1000.17" x2="421" y2="973.17" xlink:href="#무제_그라디언트_6"/><linearGradient id="무제_그라디언트_6-3" x1="421" y1="865.17" x2="421" y2="838.17" xlink:href="#무제_그라디언트_6"/><linearGradient id="무제_그라디언트_6-4" x1="421" y1="730.17" x2="421" y2="703.17" xlink:href="#무제_그라디언트_6"/><linearGradient id="무제_그라디언트_6-5" x1="421" y1="595.17" x2="421" y2="568.17" xlink:href="#무제_그라디언트_6"/><linearGradient id="무제_그라디언트_6-6" x1="421" y1="460.17" x2="421" y2="433.17" xlink:href="#무제_그라디언트_6"/></defs><rect class="cls-1" width="920" height="80"/><path class="cls-2" d="M529.44,134.24c0,3.19-.5,4.95-1.53,6.09a4.88,4.88,0,0,1-6.61,0c-1-1.14-1.53-2.9-1.53-6.09s.51-4.91,1.53-6.06a4.85,4.85,0,0,1,6.61,0C528.94,129.33,529.44,131.09,529.44,134.24Zm-2.56,0c0-2.52-.18-3.76-.7-4.48a1.87,1.87,0,0,0-1.56-.72,1.84,1.84,0,0,0-1.57.72c-.54.72-.72,2-.72,4.48s.18,3.8.72,4.5a1.8,1.8,0,0,0,1.57.74,1.83,1.83,0,0,0,1.56-.74C526.7,138,526.88,136.8,526.88,134.24Zm11.34,7.13h-2.55V129.71l-3.19,1.42v-2.38l3.57-1.62h2.17Zm18.74-14v2.12h-3.08a3.87,3.87,0,0,0,3.39,3.68v2.17a6.85,6.85,0,0,1-4.61-2.44A7.21,7.21,0,0,1,548,135.5v-2.18a4,4,0,0,0,3.37-3.87h-3.06v-2.12h3.09v-1.84h2.47v1.84Zm4.5,2.29h2.29v2.16h-2.29v3.83H559V126h2.46ZM549,139.37a2.82,2.82,0,0,1,1.44-2.57,13.69,13.69,0,0,1,10,0,3,3,0,0,1,0,5.13,13.83,13.83,0,0,1-10,0A2.81,2.81,0,0,1,549,139.37Zm2.46,0a1,1,0,0,0,.49.85,11.06,11.06,0,0,0,6.95,0,1,1,0,0,0,.48-.85,1,1,0,0,0-.48-.86,11.06,11.06,0,0,0-6.95,0A1,1,0,0,0,551.45,139.37Zm14.12-9.14a4.14,4.14,0,0,1,1.53-3.46,5,5,0,0,1,5.68,0,3.76,3.76,0,0,1,1.43,2.36h2.5V126h2.46v8.8h-2.46v-3.53h-2.49a3.81,3.81,0,0,1-1.44,2.45,5,5,0,0,1-5.68,0A4.17,4.17,0,0,1,565.57,130.23Zm2.41,0a2.35,2.35,0,0,0,.66,1.78,2,2,0,0,0,1.3.47,2,2,0,0,0,1.3-.47,2.35,2.35,0,0,0,.66-1.78,2.31,2.31,0,0,0-.66-1.77,2,2,0,0,0-1.3-.46,2,2,0,0,0-1.3.46A2.31,2.31,0,0,0,568,130.23Zm8.73,5.15h2.46v7.3H566.72v-7.3h2.46v1.72h7.53Zm-7.53,3.83v1.37h7.53v-1.37Zm22.3-5.4c0,2.9-.23,5.11-1.24,6.43a4.12,4.12,0,0,1-6.15,0c-1-1.32-1.25-3.53-1.25-6.43s.24-5.09,1.25-6.41a4.08,4.08,0,0,1,6.15,0C591.25,128.72,591.48,130.93,591.48,133.81Zm-6.19,0c0,2.45.11,4.27.65,5.08a1.46,1.46,0,0,0,1.22.61,1.43,1.43,0,0,0,1.21-.61c.54-.81.67-2.63.67-5.08s-.13-4.25-.67-5.06a1.43,1.43,0,0,0-1.21-.61,1.46,1.46,0,0,0-1.22.61C585.4,129.56,585.29,131.38,585.29,133.81ZM596,132.53h2.48v2.13H596v7.84h-2.47V126H596Zm12.83,1.28c0,2.9-.23,5.11-1.24,6.43a3.73,3.73,0,0,1-3.08,1.38,3.78,3.78,0,0,1-3.07-1.38c-1-1.32-1.23-3.53-1.23-6.43s.22-5.09,1.23-6.41a3.79,3.79,0,0,1,3.07-1.4,3.74,3.74,0,0,1,3.08,1.4C608.62,128.72,608.85,130.93,608.85,133.81Zm-6.19,0c0,2.45.13,4.27.67,5.08a1.42,1.42,0,0,0,1.2.61,1.46,1.46,0,0,0,1.23-.61c.54-.81.65-2.63.65-5.08s-.11-4.25-.65-5.06a1.46,1.46,0,0,0-1.23-.61,1.42,1.42,0,0,0-1.2.61C602.79,129.56,602.66,131.38,602.66,133.81Zm11.05,8.69h-2.46V126h2.46Zm9.6-12.74v2h-3.42v1.66h2.26a10.1,10.1,0,0,0,2.4-.2v1.87a8.66,8.66,0,0,1-2.52.31h-4.52v-9.2h6.17v2h-3.79v1.6Zm.55-.07h1.59v-3.62h2.34v9.74h-2.34v-4h-1.59Zm5-3.71h2.36v9.92h-2.36Zm-10.21,10.58h12.57v6.12H618.66Zm2.47,2.13v1.89h7.63v-1.89Zm24.37-9.92c0,2.92,1.35,4.21,3.46,4.84v2.18a7.55,7.55,0,0,1-4.67-2.57A7.43,7.43,0,0,1,639.6,136v-2.18c2.17-.65,3.43-2.23,3.43-5v-2.7h2.47Zm5.62,8.8V131h-3.33v-2.12h3.33V126h2.46v11.59Zm-10,5v-5.85h2.47v3.7h10.28v2.15Zm25-16.4v2.1H663v.11c0,2.83,1.28,4,3.4,4.45V135a6.85,6.85,0,0,1-4.59-2.45,7.11,7.11,0,0,1-4.67,2.63V133c2.14-.45,3.4-1.79,3.4-4.65v-.11h-3.1v-2.1Zm2.29,9.23v-4h-3.16v-2.12h3.16V126h2.46v9.43Zm-10.17,3.84a2.93,2.93,0,0,1,1.53-2.6,12.59,12.59,0,0,1,9.93,0,3,3,0,0,1,0,5.21,12.83,12.83,0,0,1-9.93,0A3,3,0,0,1,658.23,139.25Zm2.46,0a1,1,0,0,0,.61.93,10.43,10.43,0,0,0,6.86,0,1,1,0,0,0,0-1.85,10.43,10.43,0,0,0-6.86,0A1,1,0,0,0,660.69,139.25Z" transform="translate(-500 -95.33)"/><rect class="cls-2" x="225" y="5" width="690" height="70"/><path class="cls-3" d="M746.25,130.9v-1.33h2.52V128.1h1.52v1.47h2.52v1.33h-2.52a3.27,3.27,0,0,0,2.75,3.29v1.36a5.1,5.1,0,0,1-3.48-2.16A5.12,5.12,0,0,1,746,135.7v-1.34a3.35,3.35,0,0,0,2.75-3.46Zm10.09-2.44v2.93h1.85v1.33h-1.85v3.13h-1.53v-7.39Zm-9.53,10.39a2.11,2.11,0,0,1,1.05-1.88,10.11,10.11,0,0,1,7.74,0,2.11,2.11,0,0,1,1,1.88,2,2,0,0,1-1,1.85,10.36,10.36,0,0,1-7.74,0A2,2,0,0,1,746.81,138.85Zm1.52,0a.91.91,0,0,0,.46.78,8.27,8.27,0,0,0,5.88,0,.9.9,0,0,0,.45-.78.94.94,0,0,0-.45-.81,8.57,8.57,0,0,0-5.88,0A1,1,0,0,0,748.33,138.85Zm11.35-7.2a3.16,3.16,0,0,1,1.14-2.57,3.51,3.51,0,0,1,2.2-.7,3.44,3.44,0,0,1,2.19.7,2.86,2.86,0,0,1,1.08,1.92h2.3v-2.54h1.52v6.71h-1.52V132.3h-2.28a2.88,2.88,0,0,1-1.1,1.93,3.39,3.39,0,0,1-2.19.71,3.45,3.45,0,0,1-2.2-.71A3.13,3.13,0,0,1,759.68,131.65Zm1.49,0a1.91,1.91,0,0,0,.62,1.53,1.75,1.75,0,0,0,1.23.45,1.81,1.81,0,0,0,1.24-.45,1.93,1.93,0,0,0,.6-1.53,2,2,0,0,0-.6-1.52,1.86,1.86,0,0,0-1.24-.44,1.79,1.79,0,0,0-1.23.44A1.94,1.94,0,0,0,761.17,131.65Zm7.42,5.67v-1.48h1.52v5.45h-9.49v-5.45h1.53v1.48Zm0,1.31h-6.44V140h6.44Zm13.68-4.16c0-2-.16-3.49-.66-4.16a1.36,1.36,0,0,0-1.11-.53,1.3,1.3,0,0,0-1.1.53c-.54.67-.66,2.14-.66,4.16s.12,3.48.66,4.17a1.36,1.36,0,0,0,1.1.5,1.42,1.42,0,0,0,1.11-.5C782.11,138,782.27,136.48,782.27,134.47Zm-5,0c0-2.3.22-4,1-5a2.78,2.78,0,0,1,2.25-1,2.75,2.75,0,0,1,2.24,1c.81,1,1,2.71,1,5s-.23,4-1,5a2.76,2.76,0,0,1-2.24,1,2.79,2.79,0,0,1-2.25-1C777.45,138.49,777.23,136.76,777.23,134.47Zm10.06-6v5.18h2V135h-2v6.19h-1.52v-12.7Zm8.51,6c0-2-.13-3.49-.67-4.16a1.3,1.3,0,0,0-1.1-.53,1.36,1.36,0,0,0-1.11.53c-.5.67-.66,2.14-.66,4.16s.16,3.48.66,4.17a1.42,1.42,0,0,0,1.11.5,1.36,1.36,0,0,0,1.1-.5C795.67,138,795.8,136.48,795.8,134.47Zm-5,0c0-2.3.23-4,1-5a2.75,2.75,0,0,1,2.24-1,2.78,2.78,0,0,1,2.25,1c.81,1,1,2.71,1,5s-.23,4-1,5a2.79,2.79,0,0,1-2.25,1,2.76,2.76,0,0,1-2.24-1C791,138.49,790.75,136.76,790.75,134.47Zm10.29-6v12.7h-1.52v-12.7Zm6.54,7.16h-3.4v-7h4.63v1.24h-3.16v1.61h2.85v1.23h-2.85v1.68h2a7.43,7.43,0,0,0,2-.22v1.16A6.63,6.63,0,0,1,807.58,135.62Zm1.52-2.87v-1.33h1.43v-2.87H812V136h-1.43v-3.24Zm4.12,3.33v-7.62h1.47v7.62Zm-8.13,5.21v-4.48h9.6v4.48Zm8.09-3.18h-6.57V140h6.57ZM828,134.75h-6.19v-6.13H828Zm-1.49-1.29v-3.53h-3.22v3.53Zm5.56,2.1H830.5v-7.1H832Zm-4.77,4.13c-.84,1-2.69,1.54-5.1,1.6V140c2.24,0,4.13-.67,4.31-1.9h-3.93v-1.3h4v-1.26H828v1.26h4v1.3h-4c.19,1.23,2.1,1.86,4.36,1.9v1.31C829.92,141.23,828.09,140.66,827.25,139.69Zm11.86-8a3.16,3.16,0,0,1,1.13-2.57,3.51,3.51,0,0,1,2.2-.7,3.47,3.47,0,0,1,2.2.7,2.89,2.89,0,0,1,1.07,1.92H848v-2.54h1.53v6.71H848V132.3h-2.28a2.9,2.9,0,0,1-1.09,1.93,3.41,3.41,0,0,1-2.2.71,3.45,3.45,0,0,1-2.2-.71A3.12,3.12,0,0,1,839.11,131.65Zm1.48,0a1.93,1.93,0,0,0,.61,1.53,1.93,1.93,0,0,0,2.48,0,1.9,1.9,0,0,0,.61-1.53,1.94,1.94,0,0,0-.61-1.52,1.86,1.86,0,0,0-1.24-.44,1.84,1.84,0,0,0-1.24.44A2,2,0,0,0,840.59,131.65Zm7.42,5.67v-1.48h1.53v5.45H840v-5.45h1.53v1.48Zm0,1.31h-6.44V140H848Zm14.89-8.73h-4.14c.18,1.26,2.31,2,4.27,2.12v1.29a7.84,7.84,0,0,1-5-1.89,8,8,0,0,1-5.06,1.89V132c2-.13,4.09-.86,4.27-2.12h-4.09v-1.28h9.77Zm-10.61,5.77v-1.3h4.94v-1.65h1.52v1.65h5v1.3Zm.6,3.45a1.87,1.87,0,0,1,1-1.71,12.09,12.09,0,0,1,8.22,0,1.94,1.94,0,0,1,0,3.41,12.42,12.42,0,0,1-8.22,0A1.86,1.86,0,0,1,852.89,139.12Zm1.53,0a.79.79,0,0,0,.44.68,11.39,11.39,0,0,0,6.34,0,.78.78,0,0,0,.44-.68.8.8,0,0,0-.44-.69,11.39,11.39,0,0,0-6.34,0A.82.82,0,0,0,854.42,139.12Zm19.69-10.57v2.17a3.69,3.69,0,0,0,2.84,3.82v1.34a5.65,5.65,0,0,1-3.59-2.29,5.6,5.6,0,0,1-3.59,2.45v-1.36a3.86,3.86,0,0,0,2.82-4v-2.17Zm6.38,8.8H879v-5.21h-2.77v-1.3H879v-2.38h1.53Zm.22,3.87H871V136.9h1.52v3h8.19Zm3-11.29v-1.31h6.55v1.31H887.7v.48a3.27,3.27,0,0,0,2.76,3.53v1.34a5.08,5.08,0,0,1-3.49-2.14,5.22,5.22,0,0,1-3.53,2.31v-1.36a3.37,3.37,0,0,0,2.75-3.68v-.48Zm10.26,5.77H892.4v-3.25h-2.62v-1.3h2.62v-2.69h1.53Zm-4.69,5.75a7.68,7.68,0,0,1-3.87-.79,2.2,2.2,0,0,1,0-3.81,9.74,9.74,0,0,1,7.73,0,2.18,2.18,0,0,1,0,3.81A7.61,7.61,0,0,1,889.24,141.45Zm0-4.1a6.16,6.16,0,0,0-2.91.53,1.05,1.05,0,0,0-.55.87,1,1,0,0,0,.55.86,8.11,8.11,0,0,0,5.82,0,1,1,0,0,0,.55-.86,1.05,1.05,0,0,0-.55-.87A6.1,6.1,0,0,0,889.24,137.35Zm7.68,4.78v-.77c.62,0,.91-.37.91-1H897v-1.85h1.72v2C898.7,141.47,898.06,142,896.92,142.13Zm11.7-5a6,6,0,0,1-3.67,3.17v-1.4c1.53-.7,2.9-2,2.9-5.53v-4.76h1.51v4.76c0,3.54,1.4,4.81,2.92,5.53v1.4A6,6,0,0,1,908.62,137.14Zm6.79-8.68v5.18h2V135h-2v6.19h-1.52v-12.7Zm3.35,3.19a3.16,3.16,0,0,1,1.13-2.57,3.53,3.53,0,0,1,2.2-.7,3.47,3.47,0,0,1,2.2.7,2.94,2.94,0,0,1,1.08,1.92h2.29v-2.54h1.53v6.71h-1.53V132.3h-2.28a2.9,2.9,0,0,1-1.09,1.93,3.41,3.41,0,0,1-2.2.71,3.47,3.47,0,0,1-2.2-.71A3.12,3.12,0,0,1,918.76,131.65Zm1.48,0a1.94,1.94,0,0,0,.62,1.53,1.77,1.77,0,0,0,1.23.45,1.86,1.86,0,0,0,1.25-.45,1.93,1.93,0,0,0,.6-1.53,2,2,0,0,0-.6-1.52,1.9,1.9,0,0,0-1.25-.44,1.81,1.81,0,0,0-1.23.44A2,2,0,0,0,920.24,131.65Zm7.42,5.67v-1.48h1.53v5.45H919.7v-5.45h1.52v1.48Zm0,1.31h-6.44V140h6.44Zm7.88-6V130h-3.16v-1.34H937v2.74h1.61v-2.88h1.46V141h-1.46V137.1H936.2a5.91,5.91,0,0,1-4,3.32V139C934.31,138.22,935.54,136.12,935.54,132.65Zm1.5.11a12.12,12.12,0,0,1-.36,3h2v-3Zm5.76-4.3v12.7h-1.49v-12.7Zm5.81-.36h1.51v1.13h3v1.15h-7.43v-1.15h3Zm-1.21,4.73a.57.57,0,0,0,.31.48,4.69,4.69,0,0,0,3.3,0,.59.59,0,0,0,.31-.48.6.6,0,0,0-.31-.49,3.4,3.4,0,0,0-1.65-.31,3.33,3.33,0,0,0-1.64.31A.57.57,0,0,0,947.4,132.83Zm-1.44,0a1.49,1.49,0,0,1,.8-1.33,5.22,5.22,0,0,1,2.6-.56,5.4,5.4,0,0,1,2.55.53,1.5,1.5,0,0,1,.05,2.68,4.39,4.39,0,0,1-1.9.56v.91h2.06a4.24,4.24,0,0,0,2.42-.55v-6.61h1.53v8.79h-1.53v-1a4.5,4.5,0,0,1-2.81.62h-6.37v-1.23h3.19v-.93a4.1,4.1,0,0,1-1.69-.49A1.54,1.54,0,0,1,946,132.83Zm8.58,8.54v-2.14h-8.12V138h9.65v3.37Zm7.91-4.23a5.87,5.87,0,0,1-3.67,3.17v-1.4c1.53-.7,2.91-2,2.91-5.53v-4.76h1.52v4.76c0,3.54,1.38,4.81,2.89,5.53v1.4A6.06,6.06,0,0,1,962.45,137.14Zm7-8.68v12.7H968v-6.79h-3V133h3v-4.58Zm7.11,1.47v-1.31h6.57v1.31h-2.52v.63a3.25,3.25,0,0,0,2.74,3.53v1.34a5,5,0,0,1-3.47-2.14,5.27,5.27,0,0,1-3.54,2.31v-1.37a3.34,3.34,0,0,0,2.74-3.67v-.63Zm10.09-1.47v3h1.85v1.33h-1.85v3h-1.52v-7.34Zm-9.53,8.16h9.53v4.75h-1.52V138h-8Zm16.93-8.07v1.56a3.68,3.68,0,0,0,2.84,3.83v1.34a5.59,5.59,0,0,1-3.59-2.3,5.5,5.5,0,0,1-3.6,2.45v-1.34a3.88,3.88,0,0,0,2.83-4v-1.56Zm6.38,7.15h-1.53v-3.63h-2.77v-1.3h2.77v-2.31h1.53Zm-4.69,5.75a7.68,7.68,0,0,1-3.87-.79,2.2,2.2,0,0,1,0-3.81,7.78,7.78,0,0,1,3.87-.8,7.69,7.69,0,0,1,3.86.8,2.18,2.18,0,0,1,0,3.81A7.59,7.59,0,0,1,995.77,141.45Zm0-4.1a6.16,6.16,0,0,0-2.91.53,1.05,1.05,0,0,0-.55.87,1,1,0,0,0,.55.86,8.11,8.11,0,0,0,5.82,0,1,1,0,0,0,.55-.86,1.05,1.05,0,0,0-.55-.87A6.1,6.1,0,0,0,995.77,137.35Z" transform="translate(-500 -95.33)"/><rect class="cls-4" y="135" width="920" height="80"/><path class="cls-2" d="M529.44,269.24c0,3.19-.5,4.95-1.53,6.09a4.88,4.88,0,0,1-6.61,0c-1-1.14-1.53-2.9-1.53-6.09s.51-4.91,1.53-6.06a4.85,4.85,0,0,1,6.61,0C528.94,264.33,529.44,266.09,529.44,269.24Zm-2.56,0c0-2.52-.18-3.76-.7-4.48a1.87,1.87,0,0,0-1.56-.72,1.84,1.84,0,0,0-1.57.72c-.54.72-.72,2-.72,4.48s.18,3.8.72,4.5a1.8,1.8,0,0,0,1.57.74,1.83,1.83,0,0,0,1.56-.74C526.7,273,526.88,271.8,526.88,269.24Zm13.41-3.06a4.38,4.38,0,0,1-1.38,3.4l-4,4.65h5.61v2.14h-9v-1.94l5.29-6.11a3,3,0,0,0,.92-2.12,1.9,1.9,0,0,0-1.93-2.16c-1.19,0-1.92.81-1.92,2.16v.43h-2.56v-.45a4.48,4.48,0,0,1,9,0Zm19.16-2.75H548.79v-2.16h13.12v5.83a28.58,28.58,0,0,1-.45,5.26H559a27.17,27.17,0,0,0,.44-4.74Zm-6,4v7.22h1.71v-7.22h2.46v7.22h5.15v2.14H548.05v-2.14H551v-7.22Zm12.36-3.34a2.68,2.68,0,0,1,1-2.18,7,7,0,0,1,7.24,0,2.73,2.73,0,0,1,1,2.18,2.7,2.7,0,0,1-1,2.17,6.88,6.88,0,0,1-7.24,0A2.65,2.65,0,0,1,565.78,264.08Zm2.34,0a1,1,0,0,0,.4.81,3.18,3.18,0,0,0,1.89.46,3.23,3.23,0,0,0,1.89-.46,1,1,0,0,0,.38-.81,1,1,0,0,0-.38-.81,3.16,3.16,0,0,0-1.89-.45,3.12,3.12,0,0,0-1.89.45A1,1,0,0,0,568.12,264.08Zm2.83,5.81v2.5h-2.47v-2.5h-3.27v-2h8.38a10.14,10.14,0,0,0,2.4-.2v1.92a8.33,8.33,0,0,1-2.52.31Zm5.76,3.6v-1.06h-3.44V270.5h3.44V261h2.46v12.51Zm-10,4.19v-4.86h2.46v2.72h10.28v2.14Zm27.09-14.4h-5.48v-2.1h7.94v1.56h3V261h2.46v9.31h-2.46V268.4h-3.69v-2.13c-1.15,2.58-3.75,3.78-7.65,4.14v-2.14C591.84,267.86,593.81,266.27,593.81,263.28Zm2.25,1.59a8.21,8.21,0,0,1-.47,1.4h3.69v-1.4ZM589.29,271h12.45v6.69H589.29Zm2.46,2.12v2.47h7.53v-2.47Zm22.52-11.93v2.1h-3.09v.29c0,2.85,1.27,4,3.4,4.47v2.16a6.87,6.87,0,0,1-4.59-2.43,7.27,7.27,0,0,1-4.68,2.62v-2.17c2.14-.44,3.4-1.77,3.4-4.65v-.29h-3.1v-2.1Zm2.29,9.29V261H619v9.49Zm0,3H606.39v-2.12H619v6.42h-2.46Zm17-9.7c0,2.92,1.35,4.21,3.46,4.84v2.18a7.55,7.55,0,0,1-4.67-2.57,7.43,7.43,0,0,1-4.69,2.75v-2.18c2.18-.65,3.43-2.23,3.43-5v-2.7h2.47Zm5.62,8.8V261h2.46v11.59Zm-10,5v-5.85h2.46v3.7h10.28v2.15Zm25-15.25v2.12h-3.06a3.84,3.84,0,0,0,3.37,3.68v2.17a6.76,6.76,0,0,1-4.59-2.44,7.21,7.21,0,0,1-4.68,2.64v-2.18a3.94,3.94,0,0,0,3.36-3.87h-3.06v-2.12h3.1v-1.84H651v1.84Zm-.67,4.9V265.1h3V261h2.46v9.63h-2.46v-3.38Zm-7.21,7.14a2.83,2.83,0,0,1,1.56-2.57,13.42,13.42,0,0,1,9.87,0,2.87,2.87,0,0,1,0,5.13,13.56,13.56,0,0,1-9.87,0A2.82,2.82,0,0,1,646.24,274.37Zm2.46,0a.93.93,0,0,0,.52.83,11,11,0,0,0,7,0,1,1,0,0,0,.52-.83.93.93,0,0,0-.52-.83,10.8,10.8,0,0,0-7,0A.89.89,0,0,0,648.7,274.37Z" transform="translate(-500 -95.33)"/><rect class="cls-2" x="225" y="140" width="690" height="70"/><path class="cls-3" d="M746.41,264.93v-1.31H753v1.31h-2.52v1.14a3.25,3.25,0,0,0,2.75,3.52v1.35a5.11,5.11,0,0,1-3.48-2.14,5.16,5.16,0,0,1-3.53,2.29v-1.34a3.37,3.37,0,0,0,2.74-3.68v-1.14Zm10.27,7.42h-1.53v-4.62h-2.62v-1.3h2.62v-3h1.53Zm.22,3.87h-9.72V271.9h1.53v3h8.19Zm2.78-9.48a3.29,3.29,0,0,1,1.07-2.65,4,4,0,0,1,4.54,0,3.82,3.82,0,0,1,0,5.28,4,4,0,0,1-4.54,0A3.26,3.26,0,0,1,759.68,266.74Zm1.49,0a2.08,2.08,0,0,0,.59,1.59,2,2,0,0,0,2.52,0,2.11,2.11,0,0,0,.58-1.59,2.14,2.14,0,0,0-.58-1.6,2,2,0,0,0-2.52,0A2.11,2.11,0,0,0,761.17,266.74Zm8.94,3.81h-1.52v-7.09h1.52Zm-9.49,5.74v-4.93h9.49v4.93Zm8-3.63h-6.44V275h6.44ZM782,268.4V265h-8.51v-1.34h10v4.41a22,22,0,0,1-.34,4.1h-1.5A22.66,22.66,0,0,0,782,268.4Zm-3.43.12h1.53v5.76h4.09v1.32H773v-1.32h2.35v-5.76h1.51v5.76h1.79Zm8.15-2.76a2.06,2.06,0,0,1,.78-1.64,4.46,4.46,0,0,1,2.72-.74,4.35,4.35,0,0,1,2.69.74,2.12,2.12,0,0,1,0,3.29,4.48,4.48,0,0,1-2.69.74,4.6,4.6,0,0,1-2.72-.74A2.07,2.07,0,0,1,786.76,265.76Zm1.46,0a.93.93,0,0,0,.39.78,3.43,3.43,0,0,0,3.29,0,.92.92,0,0,0,.38-.78,1,1,0,0,0-.38-.79,3.58,3.58,0,0,0-3.29,0A1,1,0,0,0,788.22,265.76Zm8.77,7.36h-1.52v-1H792.7v-1.2h2.77v-7.45H797Zm-6.52-3v2.18h-1.53v-2.18h-2.66v-1.26h5.77a10.48,10.48,0,0,0,2.62-.25v1.22a9,9,0,0,1-2.58.29Zm6.75,6.15H787.5v-3.6H789V275h8.19Zm10.47-1h-3.43V263.69h4.56V265h-3.08v9H808a3.57,3.57,0,0,0,2.33-.62v-9.81h1.45v5h1.43v-5.06h1.49v12.7h-1.49v-6.31h-1.43V276h-1.45v-1.4A3.9,3.9,0,0,1,807.69,275.31Zm13.73-11.76v1.56a3.68,3.68,0,0,0,2.83,3.83v1.34a5.56,5.56,0,0,1-3.58-2.3,5.52,5.52,0,0,1-3.6,2.45v-1.34a3.9,3.9,0,0,0,2.84-4v-1.56Zm6.19-.09v2.86h1.85v1.33h-1.85v3.05h-1.53v-7.24Zm-9.53,10.29A2.15,2.15,0,0,1,819,272a9.16,9.16,0,0,1,8,0,2.18,2.18,0,0,1,.94,1.79,2.2,2.2,0,0,1-.94,1.81,9.34,9.34,0,0,1-8,0A2.18,2.18,0,0,1,818.08,273.75Zm1.52,0a1,1,0,0,0,.52.87,5.59,5.59,0,0,0,2.89.53,5.71,5.71,0,0,0,2.89-.53,1,1,0,0,0,.49-.87,1,1,0,0,0-.49-.87,5.93,5.93,0,0,0-2.89-.53,5.8,5.8,0,0,0-2.89.53A1.06,1.06,0,0,0,819.6,273.75Z" transform="translate(-500 -95.33)"/><rect class="cls-5" y="270" width="920" height="80"/><path class="cls-2" d="M529.44,404.24c0,3.19-.5,4.95-1.53,6.09a4.88,4.88,0,0,1-6.61,0c-1-1.14-1.53-2.9-1.53-6.09s.51-4.91,1.53-6.06a4.85,4.85,0,0,1,6.61,0C528.94,399.33,529.44,401.09,529.44,404.24Zm-2.56,0c0-2.52-.18-3.76-.7-4.48a1.87,1.87,0,0,0-1.56-.72,1.84,1.84,0,0,0-1.57.72c-.54.72-.72,2-.72,4.48s.18,3.8.72,4.5a1.8,1.8,0,0,0,1.57.74,1.83,1.83,0,0,0,1.56-.74C526.7,408,526.88,406.8,526.88,404.24Zm4.22,3.1v-.29h2.57v.14a2.14,2.14,0,1,0,4.28,0,2.1,2.1,0,0,0-2.21-2.32h-1.4v-2.09h1.4a1.72,1.72,0,0,0,1.82-1.89,1.76,1.76,0,1,0-3.51,0V401h-2.52v-.32c0-2.18,1.56-3.82,4.28-3.82s4.27,1.64,4.27,3.82a3.17,3.17,0,0,1-2.11,3.11,3.36,3.36,0,0,1,2.54,3.53c0,2.63-1.93,4.28-4.7,4.28S531.1,410,531.1,407.34Zm22.71-10.19c0,3,1.39,4.07,3.46,4.64V404a7.35,7.35,0,0,1-4.66-2.46,7.5,7.5,0,0,1-4.7,2.66V402c2.14-.61,3.44-2,3.44-4.84v-1.08h2.46Zm5.62,6.89V396h2.46V404Zm-7.53,6.63h10.17v2H549.44v-4.93h10v-1h-10v-2h12.45v4.95h-10Zm16.85-15.18h2.47V397h3.4v2h-9.41v-2h3.54Zm-3.06,7.15a2.76,2.76,0,0,1,1.23-2.34,6,6,0,0,1,6,0,2.83,2.83,0,0,1,0,4.7,6,6,0,0,1-6,0A2.77,2.77,0,0,1,565.69,402.64Zm2.36,0a1.07,1.07,0,0,0,.41.81,2.76,2.76,0,0,0,3,0,1,1,0,0,0,0-1.62,2.88,2.88,0,0,0-3,0A1.07,1.07,0,0,0,568.05,402.64Zm8.66,3.31v-3h-2.22v-2.11h2.22V396h2.46v10Zm-10,.69h12.45v6H566.72Zm2.46,2.1v1.84h7.53v-1.84Zm19.19-11.59c0,3,1.39,4.07,3.46,4.64V404a7.4,7.4,0,0,1-4.67-2.46,7.44,7.44,0,0,1-4.69,2.66V402c2.14-.61,3.43-2,3.43-4.84v-1.08h2.47ZM594,404V396h2.46V404Zm-7.53,6.63h10.17v2H584v-4.93h10v-1H584v-2h12.45v4.95h-10Zm27.63-13.34v2.12H611a3.87,3.87,0,0,0,3.39,3.68v2.17a6.81,6.81,0,0,1-4.61-2.44,7.21,7.21,0,0,1-4.68,2.64v-2.18a3.93,3.93,0,0,0,3.36-3.87h-3.05v-2.12h3.09v-1.84H611v1.84Zm4.5,2.29h2.29v2.16h-2.29v3.83h-2.47V396h2.47Zm-12.47,9.75a2.82,2.82,0,0,1,1.44-2.57,13.69,13.69,0,0,1,10,0,3,3,0,0,1,0,5.13,13.83,13.83,0,0,1-10,0A2.81,2.81,0,0,1,606.12,409.37Zm2.46,0a1,1,0,0,0,.49.85,11.06,11.06,0,0,0,6.95,0,1,1,0,0,0,.48-.85,1,1,0,0,0-.48-.86,11.06,11.06,0,0,0-6.95,0A1,1,0,0,0,608.58,409.37Zm14.11-9.14a4.17,4.17,0,0,1,1.53-3.46,5,5,0,0,1,5.69,0,3.71,3.71,0,0,1,1.42,2.36h2.51V396h2.46v8.8h-2.46v-3.53h-2.49a3.85,3.85,0,0,1-1.44,2.45,5,5,0,0,1-5.69,0A4.2,4.2,0,0,1,622.69,400.23Zm2.42,0a2.35,2.35,0,0,0,.66,1.78,2,2,0,0,0,1.3.47,1.9,1.9,0,0,0,1.29-.47,2.31,2.31,0,0,0,.67-1.78,2.28,2.28,0,0,0-.67-1.77,2,2,0,0,0-1.29-.46,2,2,0,0,0-1.3.46A2.31,2.31,0,0,0,625.11,400.23Zm8.73,5.15h2.46v7.3H623.85v-7.3h2.46v1.72h7.53Zm-7.53,3.83v1.37h7.53v-1.37Zm24.48-10.44c0,2.92,1.35,4.21,3.46,4.84v2.18a7.55,7.55,0,0,1-4.67-2.57,7.43,7.43,0,0,1-4.69,2.75v-2.18c2.17-.65,3.43-2.23,3.43-5v-2.7h2.47Zm5.62,8.8V396h2.46v11.59Zm-10,5v-5.85h2.46v3.7h10.28v2.15Zm25-15.25v2.12h-3.06a3.84,3.84,0,0,0,3.37,3.68v2.17a6.76,6.76,0,0,1-4.59-2.44,7.21,7.21,0,0,1-4.68,2.64v-2.18a3.94,3.94,0,0,0,3.36-3.87h-3.06v-2.12h3.1v-1.84h2.46v1.84Zm-.67,4.9V400.1h3V396h2.46v9.63h-2.46v-3.38Zm-7.21,7.14a2.83,2.83,0,0,1,1.56-2.57,13.42,13.42,0,0,1,9.87,0,2.87,2.87,0,0,1,0,5.13,13.56,13.56,0,0,1-9.87,0A2.82,2.82,0,0,1,663.52,409.37Zm2.46,0a.93.93,0,0,0,.52.83,11,11,0,0,0,7,0,1,1,0,0,0,.52-.83.93.93,0,0,0-.52-.83,10.8,10.8,0,0,0-7,0A.89.89,0,0,0,666,409.37Z" transform="translate(-500 -95.33)"/><rect class="cls-2" x="225" y="275" width="690" height="70"/><path class="cls-3" d="M749.86,410.31h-3.43V398.69H751V400h-3.08v9h2.24a3.57,3.57,0,0,0,2.33-.62v-9.81h1.45v5h1.43v-5.06h1.48v12.7h-1.48v-6.31h-1.43V411h-1.45v-1.4A3.9,3.9,0,0,1,749.86,410.31Zm13.73-11.76v1.56a3.68,3.68,0,0,0,2.83,3.83v1.34a5.59,5.59,0,0,1-3.59-2.3,5.5,5.5,0,0,1-3.59,2.45v-1.34a3.9,3.9,0,0,0,2.84-4v-1.56Zm6.19-.09v2.86h1.85v1.33h-1.85v3.05h-1.53v-7.24Zm-9.54,10.29a2.18,2.18,0,0,1,.94-1.79,9.18,9.18,0,0,1,8,0,2.18,2.18,0,0,1,.94,1.79,2.2,2.2,0,0,1-.94,1.81,9.37,9.37,0,0,1-8,0A2.2,2.2,0,0,1,760.24,408.75Zm1.53,0a1,1,0,0,0,.52.87,5.57,5.57,0,0,0,2.88.53,5.75,5.75,0,0,0,2.9-.53,1,1,0,0,0,.49-.87,1,1,0,0,0-.49-.87,6,6,0,0,0-2.9-.53,5.79,5.79,0,0,0-2.88.53A1,1,0,0,0,761.77,408.75ZM778,401.43V400h-4.59v-1.34h6.09v2.56c0,4.83-1.79,8.05-6.17,9.17V409C776.53,408,778,405.39,778,401.43Zm5.55-3v12.7H782v-12.7Zm8.48,2.27c-.91,1.06-2.93,1.78-5.33,2v-1.28c2.49-.26,4.57-1.12,4.57-2.72v-.15h1.52v.15c0,1.6,2.07,2.45,4.6,2.72v1.28C794.94,402.51,792.92,401.78,792,400.73Zm-5.7,3.92v-1.29h11.44v1.29h-5v1.09h4.15v3.39h-8.26v.92h8.54v1.24H787.15v-3.38h8.25V407h-8.25v-1.23h4.12v-1.09ZM810,410.31h-5.7v-6.54h4.43V400h-4.43v-1.34h5.93v6.41h-4.41V409h4.48a4,4,0,0,0,2.61-.73v-9.79h1.53v12.7H813v-1.65A4.36,4.36,0,0,1,810,410.31ZM823,402.83a7.77,7.77,0,0,1-5.42,3.42v-1.36c2.9-.66,4.65-2.47,4.65-5.24v-1h1.51v1c0,2.77,1.79,4.58,4.67,5.24v1.36A7.77,7.77,0,0,1,823,402.83Zm-5.63,7.77v-1.32h11.27v1.32Zm24-10.57H833v2.1h8.29v1.33H833v2.16h8.58v1.31h-10.1v-8.24h9.95ZM830.79,410.6v-1.32h11.27v1.32Zm24-5.85h-6.19v-6.13h6.19Zm-1.49-1.29v-3.53h-3.22v3.53Zm5.56,2.1h-1.52v-7.1h1.52Zm-4.77,4.13c-.84,1-2.69,1.54-5.1,1.6V410c2.24,0,4.13-.67,4.31-1.9h-3.93v-1.3h4v-1.26h1.51v1.26h4v1.3h-4c.19,1.23,2.1,1.86,4.36,1.9v1.31C856.8,411.23,855,410.66,854.13,409.69Zm15.16-2.55a6,6,0,0,1-3.67,3.17v-1.4c1.53-.7,2.9-2,2.9-5.53v-4.76H870v4.76c0,3.54,1.4,4.81,2.91,5.53v1.4A6,6,0,0,1,869.29,407.14Zm6.79-8.68v5.18h2V405h-2v6.19h-1.53v-12.7Zm3.34,3.19a3.16,3.16,0,0,1,1.14-2.57,3.51,3.51,0,0,1,2.2-.7,3.44,3.44,0,0,1,2.19.7A2.86,2.86,0,0,1,886,401h2.3v-2.54h1.52v6.71h-1.52V402.3h-2.28a2.88,2.88,0,0,1-1.1,1.93,3.39,3.39,0,0,1-2.19.71,3.45,3.45,0,0,1-2.2-.71A3.13,3.13,0,0,1,879.42,401.65Zm1.49,0a1.93,1.93,0,0,0,.61,1.53,1.93,1.93,0,0,0,2.48,0,1.93,1.93,0,0,0,.6-1.53,2,2,0,0,0-.6-1.52,1.86,1.86,0,0,0-1.24-.44,1.84,1.84,0,0,0-1.24.44A2,2,0,0,0,880.91,401.65Zm7.42,5.67v-1.48h1.52v5.45h-9.49v-5.45h1.53v1.48Zm0,1.31h-6.44V410h6.44Zm4.53-8.7v-1.31h6.57v1.31h-2.52v.48a3.26,3.26,0,0,0,2.74,3.53v1.34a5.08,5.08,0,0,1-3.47-2.14,5.24,5.24,0,0,1-3.54,2.31v-1.36a3.35,3.35,0,0,0,2.74-3.68v-.48Zm10.1-1.47v2.86h1.84v1.33H903v3.05h-1.53v-7.24Zm-9.54,10.29a2.18,2.18,0,0,1,.94-1.79,9.18,9.18,0,0,1,8,0,2.18,2.18,0,0,1,.94,1.79,2.2,2.2,0,0,1-.94,1.81,9.37,9.37,0,0,1-8,0A2.2,2.2,0,0,1,893.42,408.75Zm1.53,0a1,1,0,0,0,.52.87,5.57,5.57,0,0,0,2.88.53,5.75,5.75,0,0,0,2.9-.53,1,1,0,0,0,.49-.87,1,1,0,0,0-.49-.87,6,6,0,0,0-2.9-.53,5.79,5.79,0,0,0-2.88.53A1,1,0,0,0,895,408.75Zm20.89-6.07a7.73,7.73,0,0,1-5.42,3.41v-1.34c2.9-.66,4.65-2.48,4.65-5.25v-.88h1.51v.88c0,2.77,1.79,4.59,4.68,5.25v1.34A7.73,7.73,0,0,1,915.84,402.68Zm-5.63,7.92v-1.32h4.86v-3.82h1.51v3.82h4.9v1.32ZM924,400v-1.34h5.12V400h-1.8v4.33c0,2.88.74,3.93,2,4.55v1.4a4.71,4.71,0,0,1-2.72-2.36,4.46,4.46,0,0,1-2.69,2.34v-1.38c1.19-.62,2-1.66,2-4.55V400Zm10.41,11.13h-1.48v-6.31H931.5V411h-1.45V398.55h1.45v5h1.43v-5.06h1.48Zm3-11.13v-1.34h6.89V400h-2.69v3.42c0,3.38,1.33,4.76,2.8,5.46v1.4a6.28,6.28,0,0,1-3.57-3.13,6.31,6.31,0,0,1-3.57,3.13v-1.4c1.44-.69,2.8-2.08,2.8-5.46V400Zm10.29-1.57v12.7h-1.53v-12.7Zm9.89-.36h1.55v1.13H962v1.15h-7.27v-1.15h2.87Zm-1.13,4.73a.6.6,0,0,0,.24.45,3,3,0,0,0,1.65.33,3.12,3.12,0,0,0,1.57-.29.57.57,0,0,0,.31-.49.58.58,0,0,0-.31-.49,3,3,0,0,0-1.57-.31,3.05,3.05,0,0,0-1.62.32A.62.62,0,0,0,956.42,402.83Zm-1.44,0a1.54,1.54,0,0,1,.75-1.33,5,5,0,0,1,2.58-.56,4.92,4.92,0,0,1,2.58.56,1.56,1.56,0,0,1,.72,1.33,1.52,1.52,0,0,1-.88,1.4,4,4,0,0,1-1.65.46v.94h1.85a4.49,4.49,0,0,0,2.41-.53v-6.64h1.52v3.85h1.87v1.33h-1.87v3.66h-1.52v-1.05a4.7,4.7,0,0,1-2.82.6h-6v-1.22h3v-.92a4.07,4.07,0,0,1-1.82-.56A1.59,1.59,0,0,1,955,402.83Zm.35,5.18h9.53v3.36h-1.52v-2.13h-8Zm12.88-6a3.81,3.81,0,0,1,1.06-2.9,3.34,3.34,0,0,1,2.27-.77,3.27,3.27,0,0,1,2.27.77,4.51,4.51,0,0,1,0,5.81,3.32,3.32,0,0,1-2.27.77,3.39,3.39,0,0,1-2.27-.77A3.84,3.84,0,0,1,968.21,402.05Zm1.48,0a2.62,2.62,0,0,0,.61,1.89,1.7,1.7,0,0,0,1.24.47,1.78,1.78,0,0,0,1.26-.47,2.71,2.71,0,0,0,.59-1.89,2.66,2.66,0,0,0-.59-1.88,1.74,1.74,0,0,0-1.26-.48,1.66,1.66,0,0,0-1.24.48A2.57,2.57,0,0,0,969.69,402.05Zm8.95,5.3h-1.53v-8.89h1.53Zm.22,3.87h-9.71V406.9h1.52v3h8.19Z" transform="translate(-500 -95.33)"/><path class="cls-6" d="M960,216.33l-20.79-20.25h41.58Z" transform="translate(-500 -95.33)"/><path class="cls-7" d="M960,351.33l-20.79-20.25h41.58Z" transform="translate(-500 -95.33)"/><rect class="cls-8" y="405" width="920" height="80"/><path class="cls-2" d="M529.44,539.24c0,3.19-.5,5-1.53,6.09a4.88,4.88,0,0,1-6.61,0c-1-1.14-1.53-2.9-1.53-6.09s.51-4.91,1.53-6.06a4.85,4.85,0,0,1,6.61,0C528.94,534.33,529.44,536.09,529.44,539.24Zm-2.56,0c0-2.52-.18-3.76-.7-4.48a1.87,1.87,0,0,0-1.56-.72,1.84,1.84,0,0,0-1.57.72c-.54.72-.72,2-.72,4.48s.18,3.8.72,4.5a1.8,1.8,0,0,0,1.57.74,1.83,1.83,0,0,0,1.56-.74C526.7,543,526.88,541.8,526.88,539.24Zm6.56,2.13h3.24v-5.46Zm7.32,0v2.14h-1.53v2.86h-2.55v-2.86h-5.75v-2.14l5.49-9.24h2.81v9.24Zm8.12-2v-8.19h13v8.19Zm10.57-6h-8.1v3.92h8.1Zm-11.4,8h14.69v2.14H556.6v4.3h-2.46v-4.3h-6.09ZM570.91,533c0,2.91,1.33,4.23,3.44,4.84V540a7.56,7.56,0,0,1-4.66-2.58,7.37,7.37,0,0,1-4.7,2.76V538c2.18-.67,3.46-2.25,3.46-5v-1.93h2.46Zm7.83,1.53H581v2.16h-2.29v3.72h-2.46V531h2.46Zm-12.47,9.72a2.87,2.87,0,0,1,1.2-2.42,12,12,0,0,1,10.44,0,3,3,0,0,1,0,4.83,12,12,0,0,1-10.44,0A2.87,2.87,0,0,1,566.27,544.25Zm2.46,0a1.06,1.06,0,0,0,.54.93,10.43,10.43,0,0,0,6.86,0,1.08,1.08,0,0,0,0-1.85,10.43,10.43,0,0,0-6.86,0A1.05,1.05,0,0,0,568.73,544.25Zm14.11-8.91a4.36,4.36,0,0,1,1.44-3.55,5.24,5.24,0,0,1,5.87,0,5.08,5.08,0,0,1,0,7.09,5.24,5.24,0,0,1-5.87,0A4.37,4.37,0,0,1,582.84,535.34Zm2.42,0a2.56,2.56,0,0,0,.64,1.87,1.9,1.9,0,0,0,1.32.45,1.86,1.86,0,0,0,1.31-.45,3,3,0,0,0,0-3.75,1.87,1.87,0,0,0-1.31-.46,1.91,1.91,0,0,0-1.32.46A2.54,2.54,0,0,0,585.26,535.34Zm8.73,4.89V531h2.46v9.25ZM584,541h12.45v6.69H584Zm2.46,2.12v2.47H594v-2.47Zm18.31,3.3h-4.45V531.27h6v2.14h-3.64v10.85h2.52a4.4,4.4,0,0,0,2.63-.57V531.07h2.4v6.25h1.27V531H614V547.5h-2.4v-8h-1.27v7.83h-2.4V545.7A5.19,5.19,0,0,1,604.77,546.41Zm23.45-12.64c0,2.92,1.35,4.21,3.46,4.84v2.18a7.55,7.55,0,0,1-4.67-2.57,7.43,7.43,0,0,1-4.69,2.75v-2.18c2.17-.65,3.43-2.23,3.43-5v-2.7h2.47Zm5.62,8.8V531h2.46v11.59Zm-10,5v-5.85h2.46v3.7h10.28v2.15Zm25-15.25v2.12h-3.06a3.84,3.84,0,0,0,3.36,3.68v2.17a6.81,6.81,0,0,1-4.59-2.44,7.18,7.18,0,0,1-4.67,2.64v-2.18a4,4,0,0,0,3.36-3.87h-3.06v-2.12h3.1v-1.84h2.46v1.84Zm-.67,4.9V535.1h3V531h2.46v9.63h-2.46v-3.38ZM641,544.37a2.83,2.83,0,0,1,1.56-2.57,13.42,13.42,0,0,1,9.87,0,2.87,2.87,0,0,1,0,5.13,13.56,13.56,0,0,1-9.87,0A2.82,2.82,0,0,1,641,544.37Zm2.46,0a.93.93,0,0,0,.52.83,11,11,0,0,0,7,0,1,1,0,0,0,.52-.83.93.93,0,0,0-.52-.83,10.8,10.8,0,0,0-7,0A.89.89,0,0,0,643.41,544.37Z" transform="translate(-500 -95.33)"/><rect class="cls-2" x="225" y="410" width="690" height="70"/><path class="cls-3" d="M755.16,538.4V535h-8.51v-1.34h10v4.41a22,22,0,0,1-.34,4.1h-1.49A23.8,23.8,0,0,0,755.16,538.4Zm-3.43.12h1.53v5.76h4.09v1.32H746.08v-1.32h2.35v-5.76h1.51v5.76h1.79Zm8.15-2.76a2,2,0,0,1,.79-1.64,4.41,4.41,0,0,1,2.71-.74,4.33,4.33,0,0,1,2.69.74,2.12,2.12,0,0,1,0,3.29,4.46,4.46,0,0,1-2.69.74,4.55,4.55,0,0,1-2.71-.74A2,2,0,0,1,759.88,535.76Zm1.46,0a.93.93,0,0,0,.39.78,3.43,3.43,0,0,0,3.29,0,.92.92,0,0,0,.38-.78A1,1,0,0,0,765,535a3.58,3.58,0,0,0-3.29,0A1,1,0,0,0,761.34,535.76Zm8.77,7.36h-1.52v-1h-2.77v-1.2h2.77v-7.45h1.52Zm-6.52-3v2.18h-1.52v-2.18H759.4v-1.26h5.77a10.43,10.43,0,0,0,2.62-.25v1.22a9,9,0,0,1-2.58.29Zm6.75,6.15h-9.72v-3.6h1.53V545h8.19Zm13.17-6.4h-6.14v-6.27h6.14v1.07h2.59v-1.23h1.53v7.37H786.1v-2h-2.59Zm0-3.91v1.54h2.59V536ZM782,538.6v-3.67h-3.17v3.67Zm.92,7.85a7.61,7.61,0,0,1-3.86-.79,2.19,2.19,0,0,1,0-3.81,9.71,9.71,0,0,1,7.72,0,2.18,2.18,0,0,1,0,3.81A7.61,7.61,0,0,1,782.94,546.45Zm0-4.1a6.16,6.16,0,0,0-2.91.53,1.05,1.05,0,0,0-.55.87,1,1,0,0,0,.55.86,8.11,8.11,0,0,0,5.82,0,1,1,0,0,0,.55-.86,1.05,1.05,0,0,0-.55-.87A6.1,6.1,0,0,0,782.94,542.35Zm8-4.86a4.07,4.07,0,0,1,1.19-3.19,3.76,3.76,0,0,1,4.56,0,4.88,4.88,0,0,1,0,6.39,3.76,3.76,0,0,1-4.56,0A4.11,4.11,0,0,1,791,537.49Zm1.52,0a2.93,2.93,0,0,0,.67,2.17,1.8,1.8,0,0,0,1.28.47,1.7,1.7,0,0,0,1.27-.47,2.89,2.89,0,0,0,.69-2.17,3,3,0,0,0-.69-2.18,1.69,1.69,0,0,0-1.27-.45,1.79,1.79,0,0,0-1.28.45A3,3,0,0,0,792.47,537.49Zm8.57-4v12.7h-1.52v-1.44a4.84,4.84,0,0,1-3.1.71h-5.91v-1.3h6.3a4.32,4.32,0,0,0,2.71-.66v-10Zm5.05,4.92v2.07h8.59v1.31h-4.34v2.52h4.84v1.32H803.91v-1.32h4.91v-2.52h-4.25v-4.7H813v-2h-8.43v-1.34h9.95v4.69Zm17.15-.26h1.88v-4.43h1.47v11.62h-4.82V533.69h1.47Zm1.88,5.9v-4.59h-1.88V544Zm7.07,2.14h-1.48v-6.31h-1.43V546h-1.46V533.55h1.46v5h1.43v-5.06h1.48Zm3-11.23v-1.31h6.55v1.31h-2.52v.48a3.27,3.27,0,0,0,2.76,3.53v1.34a5.08,5.08,0,0,1-3.49-2.14,5.17,5.17,0,0,1-3.52,2.31v-1.36a3.37,3.37,0,0,0,2.74-3.68v-.48Zm10.26,5.77h-1.53v-3.25h-2.61v-1.3h2.61v-2.69h1.53Zm-4.69,5.75a7.64,7.64,0,0,1-3.86-.79,2.19,2.19,0,0,1,0-3.81,9.74,9.74,0,0,1,7.73,0,2.18,2.18,0,0,1,0,3.81A7.65,7.65,0,0,1,840.77,546.45Zm0-4.1a6.16,6.16,0,0,0-2.91.53,1.05,1.05,0,0,0-.55.87,1,1,0,0,0,.55.86,8.11,8.11,0,0,0,5.82,0,1,1,0,0,0,.55-.86,1.05,1.05,0,0,0-.55-.87A6.1,6.1,0,0,0,840.77,542.35Zm18.75-7.43h-5.06V537h5.13v1.3H857v1.74h2a4.34,4.34,0,0,0,2.42-.54v-6.06H863v9.3h-1.53v-2a4.5,4.5,0,0,1-2.81.62h-6.37v-1.33h3.23v-1.74H853v-4.7h6.56Zm3.68,11.37h-9.72v-3.83H855V545h8.19Zm6.86-9.24a3.82,3.82,0,0,1,1-2.87,3.61,3.61,0,0,1,4.53,0,2.75,2.75,0,0,1,.52.65H879v-1.37h1.53v8.89H879V539.2h-2.77a2.73,2.73,0,0,1-.56.74,3.64,3.64,0,0,1-4.53,0A3.87,3.87,0,0,1,870.06,537.05Zm6.54-.9a6.21,6.21,0,0,1,.07.9,5.77,5.77,0,0,1-.06.85H879v-1.75Zm-5.06.9a2.67,2.67,0,0,0,.6,1.9,1.72,1.72,0,0,0,1.24.46,1.74,1.74,0,0,0,1.23-.46,2.71,2.71,0,0,0,.57-1.9,2.67,2.67,0,0,0-.57-1.89,1.71,1.71,0,0,0-1.23-.47,1.68,1.68,0,0,0-1.24.47A2.63,2.63,0,0,0,871.54,537.05Zm9.17,9.17H871V541.9h1.52v3h8.19Zm11.71-9.59V535H883.9v-1.33h10v2.84a18.3,18.3,0,0,1-.29,3.43h-1.51A16.23,16.23,0,0,0,892.42,536.63Zm-9.09,5.71V541H894.6v1.35h-4.9v4h-1.51v-4ZM901,533.55v1a3.49,3.49,0,0,0,2.85,3.64v1.33a5.49,5.49,0,0,1-3.59-2.2,5.5,5.5,0,0,1-3.6,2.35v-1.33a3.66,3.66,0,0,0,2.83-3.79v-1Zm6.39,6h-1.53v-6.13h1.53Zm-8,4.36v1.1h8.12v1.24h-9.64v-3.55h8v-1.13h-8v-1.22h9.49V544Zm21.41-4.2h-6.19v-6.13h6.19Zm-1.49-1.29v-3.53H916.1v3.53Zm5.56,2.1h-1.52v-7.1h1.52Zm-4.77,4.13c-.84,1-2.69,1.54-5.1,1.6V545c2.24,0,4.13-.67,4.31-1.9h-3.93v-1.3h4v-1.26h1.51v1.26h4v1.3h-4c.19,1.23,2.1,1.86,4.36,1.9v1.31C922.78,546.23,921,545.66,920.11,544.69ZM936,533.55v1a3.49,3.49,0,0,0,2.84,3.64v1.33a4,4,0,0,0-7.18.15v-1.33a3.66,3.66,0,0,0,2.83-3.79v-1Zm6.38,6h-1.52v-6.13h1.52Zm-8,4.36v1.1h8.12v1.24H932.9v-3.55h8v-1.13h-8v-1.22h9.49V544Zm17.92-8.39h-7.23v-1.24H948V533.1h1.51v1.22h2.82Zm-5.38,3a1,1,0,0,0,.44.8,2.22,2.22,0,0,0,1.34.36,2.37,2.37,0,0,0,1.4-.39.93.93,0,0,0,.36-.77,1,1,0,0,0-.4-.8,2.24,2.24,0,0,0-1.36-.36,2.36,2.36,0,0,0-1.34.36A1,1,0,0,0,947,538.57Zm-1.47,0a2,2,0,0,1,.91-1.73,4.06,4.06,0,0,1,2.34-.63,4,4,0,0,1,2.32.63,2,2,0,0,1,.91,1.73,2,2,0,0,1-.93,1.75,4.16,4.16,0,0,1-2.3.6,4.06,4.06,0,0,1-2.38-.65A2,2,0,0,1,945.5,538.57Zm10.33,2.54h-1.52V538.6h-2v-1.32h2v-3.82h1.52Zm-9.49,5.18v-4.44h9.49v4.44Zm8-3.11h-6.44V545h6.44Zm8.58-9.63v1a3.49,3.49,0,0,0,2.84,3.64v1.33a4,4,0,0,0-7.18.15v-1.33a3.66,3.66,0,0,0,2.83-3.79v-1Zm6.38,6h-1.52v-6.13h1.52Zm-8,4.36v1.1h8.12v1.24h-9.65v-3.55h8v-1.13h-8v-1.22h9.49V544Z" transform="translate(-500 -95.33)"/><path class="cls-9" d="M960,486.33l-20.79-20.25h41.58Z" transform="translate(-500 -95.33)"/><rect class="cls-10" y="540" width="920" height="80"/><path class="cls-2" d="M529.44,674.24c0,3.19-.5,5-1.53,6.09a4.88,4.88,0,0,1-6.61,0c-1-1.14-1.53-2.9-1.53-6.09s.51-4.91,1.53-6.06a4.85,4.85,0,0,1,6.61,0C528.94,669.33,529.44,671.09,529.44,674.24Zm-2.56,0c0-2.52-.18-3.76-.7-4.48a1.87,1.87,0,0,0-1.56-.72,1.84,1.84,0,0,0-1.57.72c-.54.72-.72,2-.72,4.48s.18,3.8.72,4.5a1.8,1.8,0,0,0,1.57.74,1.83,1.83,0,0,0,1.56-.74C526.7,678,526.88,676.8,526.88,674.24Zm9,0a1.74,1.74,0,0,0-1.58.86h-2.5l.37-8h7.53v2.14h-5.15l-.2,3.84a2.5,2.5,0,0,1,2.13-1c2.32,0,4,1.56,4,4.75,0,3-1.74,4.73-4.59,4.73s-4.41-1.56-4.57-4.14h2.56a1.93,1.93,0,0,0,2,2c1.26,0,2-.86,2-2.61S537.22,674.26,535.9,674.26Zm18.4-5.81v-2.27h2.41v3.18h2.72V666h2.46v9h-2.46v-3.54h-2.72v3h-8.23v-8.35h2.42v2.27Zm0,2.1h-3.4v1.87h3.4Zm5.13,5.06h2.46v7.07H549.44v-7.07h2.46v1.62h7.53Zm-7.53,3.71v1.26h7.53v-1.26Zm13.67-8.61a5,5,0,0,1,1.4-3.85,5,5,0,0,1,5.94,0,6,6,0,0,1,0,7.71,5,5,0,0,1-5.94,0A5,5,0,0,1,565.57,670.71Zm2.41,0a3.21,3.21,0,0,0,.63,2.2,2,2,0,0,0,2.66,0,4.14,4.14,0,0,0,0-4.39,2,2,0,0,0-2.66,0A3.23,3.23,0,0,0,568,670.71Zm8.73,6.86V666h2.46v11.59Zm-10,5v-5.85h2.46v3.7h10.28v2.15Zm26.94-15.43c0,3,1.39,4.07,3.46,4.64V674a7.35,7.35,0,0,1-4.66-2.46,7.5,7.5,0,0,1-4.7,2.66V672c2.14-.61,3.44-2,3.44-4.84v-1.08h2.46Zm5.62,6.91v-3.63H596V668.3h3.33V666h2.46v8.08Zm-7.53,6.61h10.17v2H589.29v-4.93h10v-1h-10v-2h12.45v5h-10Zm16.31-7.78h5.74a4.72,4.72,0,0,0,2.76-.59V666H619v9.38h-2.46v-1.17c-.56.47-1.57.72-3.44.72h-7.51v-5.4h5.87v-1.32h-5.87v-2h8.32v5.34h-5.87Zm8.5,3.06H619v6.73H606.57V676H609v1.44h7.53ZM609,679.46v1.15h7.53v-1.15Z" transform="translate(-500 -95.33)"/><rect class="cls-2" x="225" y="545" width="690" height="70"/><path class="cls-3" d="M747.9,670.53h3.22v-1.91h1.48v2.54h2.55v-2.7h1.53v6.89h-1.53v-2.87H752.6v2.46h-6.19v-6.32h1.49Zm3.22,3.1v-1.79H747.9v1.79Zm4,3.78V676h1.53v5.3h-9.5V676h1.53v1.42Zm0,1.29h-6.44V680h6.44Zm4.53-6.65a3.82,3.82,0,0,1,1.07-2.9,3.73,3.73,0,0,1,4.54,0,4.51,4.51,0,0,1,0,5.81,3.73,3.73,0,0,1-4.54,0A3.84,3.84,0,0,1,759.68,672.05Zm1.49,0a2.66,2.66,0,0,0,.6,1.89,1.74,1.74,0,0,0,1.25.47,1.8,1.8,0,0,0,1.26-.47,2.75,2.75,0,0,0,.58-1.89,2.71,2.71,0,0,0-.58-1.88,1.76,1.76,0,0,0-1.26-.48,1.7,1.7,0,0,0-1.25.48A2.62,2.62,0,0,0,761.17,672.05Zm8.94,5.3h-1.52v-8.89h1.52Zm.23,3.87h-9.72V676.9h1.53v3h8.19Zm6.09-4.08a6,6,0,0,1-3.67,3.17v-1.4c1.53-.7,2.9-2,2.9-5.53v-4.76h1.51v4.76c0,3.54,1.4,4.81,2.91,5.53v1.4A6,6,0,0,1,776.43,677.14Zm6.79-8.68v5.18h2V675h-2v6.19h-1.53v-12.7Zm3.34,3.19a3.16,3.16,0,0,1,1.14-2.57,3.51,3.51,0,0,1,2.2-.7,3.44,3.44,0,0,1,2.19.7,2.86,2.86,0,0,1,1.08,1.92h2.3v-2.54H797v6.71h-1.52V672.3h-2.28a2.88,2.88,0,0,1-1.1,1.93,3.39,3.39,0,0,1-2.19.71,3.45,3.45,0,0,1-2.2-.71A3.13,3.13,0,0,1,786.56,671.65Zm1.49,0a1.93,1.93,0,0,0,.61,1.53,1.93,1.93,0,0,0,2.48,0,1.93,1.93,0,0,0,.6-1.53,2,2,0,0,0-.6-1.52,1.86,1.86,0,0,0-1.24-.44,1.84,1.84,0,0,0-1.24.44A2,2,0,0,0,788.05,671.65Zm7.42,5.67v-1.48H797v5.45H787.5v-5.45H789v1.48Zm0,1.31H789V680h6.44Zm4.72-7.28V670H802V668.1h1.48V670h1.81v1.32H803.5v3c0,2.88.75,3.93,2,4.55v1.4a4.72,4.72,0,0,1-2.71-2.36,4.46,4.46,0,0,1-2.69,2.34v-1.38c1.19-.62,2-1.66,2-4.55v-3Zm4.41,3.83v-1.33h1.87v-5.3H808V681h-1.49v-5.83Zm6,6h-1.48v-12.7h1.48Zm12.11-9.83V670H817.8v-1.33h6.42v2.64a12.64,12.64,0,0,1-.19,2.21h-1.51A13.2,13.2,0,0,0,822.71,671.33Zm3.37-2.87h1.53v3.74h1.86v1.3h-1.86v4.08h-1.53v-2.12a4.59,4.59,0,0,1-2.81.6h-6v-1.31h2v-3h1.53v3h2.9a4.61,4.61,0,0,0,2.4-.53Zm1.77,12.83h-9.61v-4h1.52V680h8.09Zm9.9-10.77h-7.23V669.3h2.9v-1.2h1.51v1.2h2.82Zm-5.38,2.65a.72.72,0,0,0,.38.6,3.62,3.62,0,0,0,2.74,0,.71.71,0,0,0,.44-.64.72.72,0,0,0-.41-.62,3.61,3.61,0,0,0-2.74,0A.7.7,0,0,0,832.37,673.17Zm-1.47,0a1.75,1.75,0,0,1,.9-1.54,5.58,5.58,0,0,1,4.66,0,1.71,1.71,0,0,1,.92,1.54,1.68,1.68,0,0,1-.86,1.52,4.46,4.46,0,0,1-2.37.55,4.54,4.54,0,0,1-2.35-.53A1.75,1.75,0,0,1,830.9,673.17Zm10.15-1.89h1.85v1.33h-1.85v2.56h-1.53v-6.71h1.53Zm-7.85,8.86h8v1.15h-9.52v-3.24h7.84v-1h-7.84v-1.17h9.37v3.25H833.2Zm25.63-10.24h-8.26v1.87h8.33V673h-9.84v-4.42h9.77Zm-10.61,5.69V674.3h11.44v1.29Zm.6,3.53a1.86,1.86,0,0,1,1-1.71,8.76,8.76,0,0,1,4.12-.72,8.62,8.62,0,0,1,4.1.72,1.94,1.94,0,0,1,0,3.41,8.65,8.65,0,0,1-4.1.7,8.8,8.8,0,0,1-4.12-.7A1.85,1.85,0,0,1,848.82,679.12Zm1.53,0a.78.78,0,0,0,.43.68,7.37,7.37,0,0,0,3.18.45,7.21,7.21,0,0,0,3.16-.45.77.77,0,0,0,.45-.68.79.79,0,0,0-.45-.69A7.21,7.21,0,0,0,854,678a7.37,7.37,0,0,0-3.18.45A.81.81,0,0,0,850.35,679.12Zm16.42-7.69V670h-4.59v-1.34h6.09v2.56c0,4.83-1.8,8-6.18,9.17V679C865.31,678,866.77,675.39,866.77,671.43Zm5.54-3v12.7h-1.52v-12.7Zm8.5,4.22a7.71,7.71,0,0,1-5.42,3.41v-1.34c2.9-.66,4.65-2.48,4.65-5.25v-.88h1.51v.88c0,2.77,1.79,4.59,4.68,5.25v1.34A7.73,7.73,0,0,1,880.81,672.68Zm-5.63,7.92v-1.32H880v-3.82h1.51v3.82h4.9v1.32Z" transform="translate(-500 -95.33)"/><path class="cls-11" d="M960,621.33l-20.79-20.25h41.58Z" transform="translate(-500 -95.33)"/><rect class="cls-12" y="675" width="920" height="80"/><path class="cls-2" d="M529.44,809.24c0,3.19-.5,5-1.53,6.09a4.88,4.88,0,0,1-6.61,0c-1-1.14-1.53-2.9-1.53-6.09s.51-4.91,1.53-6.06a4.85,4.85,0,0,1,6.61,0C528.94,804.33,529.44,806.09,529.44,809.24Zm-2.56,0c0-2.52-.18-3.76-.7-4.48a1.87,1.87,0,0,0-1.56-.72,1.84,1.84,0,0,0-1.57.72c-.54.72-.72,2-.72,4.48s.18,3.8.72,4.5a1.8,1.8,0,0,0,1.57.74,1.83,1.83,0,0,0,1.56-.74C526.7,813,526.88,811.8,526.88,809.24Zm13.43-3.72h-2.59A1.63,1.63,0,0,0,536,804c-1.51,0-2.09,1.41-2.14,4.41a2.7,2.7,0,0,1,2.52-1.27c2.45,0,4.23,1.76,4.23,4.73a4.46,4.46,0,0,1-4.66,4.75,4.2,4.2,0,0,1-3.6-1.74c-.87-1.19-1.1-2.79-1.1-5,0-5.63,1.4-8,4.75-8A4,4,0,0,1,540.31,805.52ZM538,811.87c0-1.66-.81-2.61-2.12-2.61s-2.11,1-2.11,2.61.81,2.61,2.11,2.61S538,813.51,538,811.87Zm14.55,1a8,8,0,0,1-4.79,3.51v-2.27c1.91-.87,3.55-2.38,3.55-7v-5.94h2.46v5.94c0,4.64,1.64,6.15,3.55,7v2.27A8.14,8.14,0,0,1,552.59,812.9Zm8.87-5.37H564v2.13h-2.49v7.84H559V801h2.46Zm4.11-2.3a4.14,4.14,0,0,1,1.53-3.46,5,5,0,0,1,5.68,0,3.76,3.76,0,0,1,1.43,2.36h2.5V801h2.46v8.8h-2.46v-3.53h-2.49a3.81,3.81,0,0,1-1.44,2.45,5,5,0,0,1-5.68,0A4.17,4.17,0,0,1,565.57,805.23Zm2.41,0a2.35,2.35,0,0,0,.66,1.78,2,2,0,0,0,1.3.47,2,2,0,0,0,1.3-.47,2.35,2.35,0,0,0,.66-1.78,2.31,2.31,0,0,0-.66-1.77,2,2,0,0,0-1.3-.46,2,2,0,0,0-1.3.46A2.31,2.31,0,0,0,568,805.23Zm8.73,5.15h2.46v7.3H566.72v-7.3h2.46v1.72h7.53Zm-7.53,3.83v1.37h7.53v-1.37Zm22.72-12.94v2.14h-3.31v3.71c0,4.64,1.58,6.15,3.45,7v2.27a8.24,8.24,0,0,1-4.68-3.51,8.38,8.38,0,0,1-4.68,3.51v-2.27c1.86-.87,3.44-2.38,3.44-7v-3.71h-3.28v-2.14Zm4.12,6.26h2.48v2.13H596v7.84h-2.47V801H596Zm12.58-4.28v1.87H619v2H606.14v-6h12.78v2.07Zm-3.51,5.09H620v2.09H605.09Zm.76,6.36a2.57,2.57,0,0,1,1.42-2.4,16.25,16.25,0,0,1,10.55,0,2.55,2.55,0,0,1,1.42,2.4,2.5,2.5,0,0,1-1.42,2.37,15.91,15.91,0,0,1-10.55,0A2.51,2.51,0,0,1,605.85,814.7Zm2.46,0a.78.78,0,0,0,.49.73,15.81,15.81,0,0,0,7.49,0,.78.78,0,0,0,.48-.73.83.83,0,0,0-.48-.76,15.81,15.81,0,0,0-7.49,0A.83.83,0,0,0,608.31,814.7Zm17.57-7.8H636.3v2H631v1h6.25V812H622.37v-2.07h6.17v-1h-5.13V804h10.32v-.86H623.41v-2h12.78V806H625.88Zm7.85,8.08H623.31v-2.07h12.88v4.86h-2.46Z" transform="translate(-500 -95.33)"/><rect class="cls-2" x="225" y="680" width="690" height="70"/><path class="cls-3" d="M751.44,806.33V805h-4.91v-1.33H753v2.64a12.64,12.64,0,0,1-.19,2.21h-1.52A12.15,12.15,0,0,0,751.44,806.33Zm3.37-2.87h1.53v3.74h1.86v1.3h-1.86v4.08h-1.53v-2.12a4.59,4.59,0,0,1-2.81.6h-6v-1.31h2v-3h1.53v3h2.9a4.61,4.61,0,0,0,2.4-.53Zm1.77,12.83H747v-4h1.52V815h8.09Zm9.9-10.77h-7.23V804.3h2.9v-1.2h1.51v1.2h2.82Zm-5.38,2.65a.72.72,0,0,0,.38.6,2.86,2.86,0,0,0,1.4.29,2.92,2.92,0,0,0,1.34-.25.7.7,0,0,0,.43-.64.71.71,0,0,0-.4-.62,3.61,3.61,0,0,0-2.74,0A.7.7,0,0,0,761.1,808.17Zm-1.47,0a1.76,1.76,0,0,1,.89-1.54,5.6,5.6,0,0,1,4.67,0,1.73,1.73,0,0,1,.92,1.54,1.68,1.68,0,0,1-.87,1.52,4.4,4.4,0,0,1-2.36.55,4.61,4.61,0,0,1-2.36-.53A1.74,1.74,0,0,1,759.63,808.17Zm10.15-1.89h1.85v1.33h-1.85v2.56h-1.53v-6.71h1.53Zm-7.86,8.86h8v1.15h-9.52v-3.24h7.84v-1h-7.84v-1.17h9.37v3.25h-7.86Zm13.61-2.56a5.79,5.79,0,0,1-2.85,2.73v-1.42c1.27-.77,2.1-2.06,2.1-4.87v-5.4h1.49V809c0,2.83.83,4.09,2.12,4.89v1.4A5.9,5.9,0,0,1,775.53,812.58Zm5.39,3.43h-1.48V809.4h-1.92v-1.32h1.92v-4.53h1.48Zm2.8.15h-1.48v-12.7h1.48ZM797,803.62v6.16h-10v-6.16Zm-8.43,4.84h6.9V805h-6.9ZM786.4,813v-1.34h11.27V813h-4.9v3.42h-1.52V813Zm17-.81a5.9,5.9,0,0,1-3.67,3.17v-1.4c1.53-.7,2.91-2,2.91-5.53v-4.76h1.51v4.76c0,3.54,1.39,4.81,2.9,5.53v1.4A6.06,6.06,0,0,1,803.38,812.14Zm7-8.68v12.7h-1.53v-6.79h-3V808h3v-4.58Zm13.46,7h-6.19v-6.87h6.19Zm-1.48-1.29v-4.27h-3.22v4.27Zm5.56,3.15h-1.53v-8.89H828Zm.22,3.87h-9.72V811.9H820v3h8.19Zm3-10.46a2,2,0,0,1,.79-1.64,4.43,4.43,0,0,1,2.71-.74,4.31,4.31,0,0,1,2.69.74,2.12,2.12,0,0,1,0,3.29,4.44,4.44,0,0,1-2.69.74,4.57,4.57,0,0,1-2.71-.74A2,2,0,0,1,831.15,805.76Zm1.46,0a.93.93,0,0,0,.39.78,3.43,3.43,0,0,0,3.29,0,.92.92,0,0,0,.38-.78,1,1,0,0,0-.38-.79,3.58,3.58,0,0,0-3.29,0A1,1,0,0,0,832.61,805.76Zm8.78,7.36h-1.53v-1h-2.77v-1.2h2.77v-7.45h1.53Zm-6.53-3v2.18h-1.52v-2.18h-2.66v-1.26h5.77a10.4,10.4,0,0,0,2.61-.25v1.22a8.92,8.92,0,0,1-2.57.29Zm6.75,6.15h-9.72v-3.6h1.53V815h8.19Zm4.89-11.44h6.73v-1.23h1.53v4.91H850.6v1.13h5V811H844.14v-1.31h5v-1.13H845v-4.91h1.52Zm6.73,2.42v-1.16H846.5v1.16Zm-8.48,6.93a1.84,1.84,0,0,1,1.2-1.72,12.54,12.54,0,0,1,7.85,0A1.85,1.85,0,0,1,855,814.2a1.83,1.83,0,0,1-1.21,1.71,12.93,12.93,0,0,1-7.85,0A1.82,1.82,0,0,1,844.75,814.2Zm1.52,0a.71.71,0,0,0,.48.63,11.61,11.61,0,0,0,6.26,0,.71.71,0,0,0,.49-.63.73.73,0,0,0-.49-.64,11.87,11.87,0,0,0-6.26,0A.73.73,0,0,0,846.27,814.2Zm14.87-2.06a6,6,0,0,1-3.67,3.17v-1.4c1.53-.7,2.9-2,2.9-5.53v-4.76h1.51v4.76c0,3.54,1.4,4.81,2.91,5.53v1.4A6,6,0,0,1,861.14,812.14Zm6.79-8.68v5.18h2V810h-2v6.19H866.4v-12.7Zm7.39.09v1a3.49,3.49,0,0,0,2.84,3.64v1.33a5.49,5.49,0,0,1-3.58-2.2,5.5,5.5,0,0,1-3.6,2.35v-1.33a3.66,3.66,0,0,0,2.83-3.79v-1Zm6.38,6h-1.52v-6.13h1.52Zm-8,4.36v1.1h8.12v1.24h-9.65v-3.55h8v-1.13h-8v-1.22h9.49V814Z" transform="translate(-500 -95.33)"/><path class="cls-13" d="M960,756.33l-20.79-20.25h41.58Z" transform="translate(-500 -95.33)"/><rect class="cls-14" y="810" width="920" height="80"/><path class="cls-2" d="M529.44,944.24c0,3.19-.5,5-1.53,6.09a4.88,4.88,0,0,1-6.61,0c-1-1.14-1.53-2.9-1.53-6.09s.51-4.91,1.53-6.06a4.85,4.85,0,0,1,6.61,0C528.94,939.33,529.44,941.09,529.44,944.24Zm-2.56,0c0-2.52-.18-3.76-.7-4.48a1.87,1.87,0,0,0-1.56-.72,1.84,1.84,0,0,0-1.57.72c-.54.72-.72,2-.72,4.48s.18,3.8.72,4.5a1.8,1.8,0,0,0,1.57.74,1.83,1.83,0,0,0,1.56-.74C526.7,948,526.88,946.8,526.88,944.24Zm4.49-5v-2.14h8.94v1.93l-4.61,12.31H533l4.68-12.1Zm22.89.62v-1.48h-5.69v-2.14h8.14v3.33c0,6.28-2.27,10.51-8.23,12v-2.34C552.59,948.08,554.26,944.76,554.26,939.89Zm7.62,12.61h-2.47V936h2.47Zm10.78-13.15c-1.3,1.26-3.82,2.1-7,2.32V939.6c3.35-.34,5.73-1.39,5.73-3.35v-.18h2.46v.18c0,2,2.4,3,5.74,3.35v2.07C576.47,941.45,574,940.61,572.66,939.35Zm-1.21,5.81v-1h-6.21v-2.07h14.87v2.07h-6.23v1h5.19v4.75H568.75v.78h10.69v2H566.29v-4.75H576.6v-.77H566.29v-2Zm15.7,2.74a8,8,0,0,1-4.79,3.51v-2.27c1.91-.87,3.54-2.38,3.54-7v-5.94h2.47v5.94c0,4.64,1.64,6.15,3.55,7v2.27A8.14,8.14,0,0,1,587.15,947.9Zm8.87-5.37h2.48v2.13H596v7.84h-2.47V936H596Zm4.1-2.3a4.17,4.17,0,0,1,1.53-3.46,5,5,0,0,1,5.69,0,3.71,3.71,0,0,1,1.42,2.36h2.51V936h2.46v8.8h-2.46v-3.53h-2.49a3.85,3.85,0,0,1-1.44,2.45,5,5,0,0,1-5.69,0A4.2,4.2,0,0,1,600.12,940.23Zm2.42,0a2.35,2.35,0,0,0,.66,1.78,2,2,0,0,0,1.3.47,1.9,1.9,0,0,0,1.29-.47,2.31,2.31,0,0,0,.67-1.78,2.28,2.28,0,0,0-.67-1.77,2,2,0,0,0-1.29-.46,2,2,0,0,0-1.3.46A2.31,2.31,0,0,0,602.54,940.23Zm8.73,5.15h2.46v7.3H601.28v-7.3h2.46v1.72h7.53Zm-7.53,3.83v1.37h7.53v-1.37Zm19.55-11.81h3.38v2.11h-9.23V937.4h3.38v-1.91h2.47ZM617.91,944a3.6,3.6,0,0,1,1.29-2.88,4.44,4.44,0,0,1,2.87-.94,4.49,4.49,0,0,1,2.87.94,3.57,3.57,0,0,1,1.28,2.88,3.63,3.63,0,0,1-1.28,2.9,3.92,3.92,0,0,1-1.63.77v1.8h2a4.33,4.33,0,0,0,2.82-.68V936h2.47v6.55h2.48v2.13h-2.48v7.84h-2.47v-1.71a5,5,0,0,1-3.31.81h-7.56v-2.14h3.6v-1.8a3.84,3.84,0,0,1-1.64-.77A3.67,3.67,0,0,1,617.91,944Zm2.45,0a1.74,1.74,0,0,0,.52,1.31,1.82,1.82,0,0,0,2.37,0,1.88,1.88,0,0,0,0-2.62,1.82,1.82,0,0,0-2.37,0A1.74,1.74,0,0,0,620.36,944Zm18.35-2.39v-3.19h-3.83v-2.14h6.25v3.38h1.63v-3.58h2.38v16.24h-2.38v-4.92H640a7.89,7.89,0,0,1-5.31,4.21v-2.39C637.2,948.33,638.71,945.84,638.71,941.6Zm2.42.19a16.3,16.3,0,0,1-.4,3.48h2v-3.48Zm5,10.71V936h2.4V952.5Zm5.65-12a4.55,4.55,0,0,1,1.48-3.71,4.36,4.36,0,0,1,2.9-.92,4.41,4.41,0,0,1,2.91.92,5.46,5.46,0,0,1,0,7.43,4.41,4.41,0,0,1-2.91.92,4.36,4.36,0,0,1-2.9-.92A4.58,4.58,0,0,1,651.76,940.52Zm2.42,0a2.77,2.77,0,0,0,.68,2.07,1.79,1.79,0,0,0,1.28.46,1.82,1.82,0,0,0,1.29-.46,2.77,2.77,0,0,0,.69-2.07,2.73,2.73,0,0,0-.69-2.06,1.82,1.82,0,0,0-1.29-.46,1.79,1.79,0,0,0-1.28.46A2.73,2.73,0,0,0,654.18,940.52Zm13.15-2.69V940h-2.19v1.56h2.19v2.16h-2.19v1.87h-2.47V936h2.47v1.85Zm-2.19,8.52v6.42h-2.47v-4.3h-10v-2.12Zm11-8.44v2.14H674v3.22c0,3.89.76,5.08,2.32,5.89v2.25a6.22,6.22,0,0,1-3.55-2.54,6.17,6.17,0,0,1-3.54,2.54v-2.25c1.56-.81,2.36-2,2.36-5.89v-3.22h-2.18v-2.14h2.18v-2.42H674v2.42Zm-1,4.86h2.17v-6.7h2.38v16.24h-2.38v-7.42h-2.17Zm5.52,9.73V936h2.4V952.5Zm11.52-14.2h-5.47v-2.12h7.94v1.19h3V936h2.47v8.15h-2.47v-1.51h-3.49v-2.07h3.49v-1.1h-3.24c-.83,3.28-3.78,4.45-8.1,4.81v-2.12C690,941.87,692.17,940.64,692.19,938.3Zm-2.05,12.37h10.17v2H687.67v-4.93h10v-1h-10v-2h12.46v5h-10Z" transform="translate(-500 -95.33)"/><rect class="cls-2" x="225" y="815" width="690" height="70"/><path class="cls-3" d="M756.61,939.9h-8.26v1.87h8.33V943h-9.85v-4.42h9.78ZM746,945.59V944.3h11.44v1.29Zm.61,3.53a1.86,1.86,0,0,1,1-1.71,12.09,12.09,0,0,1,8.22,0,1.94,1.94,0,0,1,0,3.41,12.42,12.42,0,0,1-8.22,0A1.85,1.85,0,0,1,746.6,949.12Zm1.52,0a.79.79,0,0,0,.44.68,11.39,11.39,0,0,0,6.34,0,.79.79,0,0,0,.45-.68.81.81,0,0,0-.45-.69,11.39,11.39,0,0,0-6.34,0A.82.82,0,0,0,748.12,949.12Zm16.42-7.69V940H760v-1.34H766v2.56c0,4.83-1.79,8-6.17,9.17V949C763.09,948,764.54,945.39,764.54,941.43Zm5.55-3v12.7h-1.53v-12.7Zm6.34,8.68a6,6,0,0,1-3.67,3.17v-1.4c1.53-.7,2.9-2,2.9-5.53v-4.76h1.51v4.76c0,3.54,1.4,4.81,2.91,5.53v1.4A6,6,0,0,1,776.43,947.14Zm6.79-8.68v5.18h2V945h-2v6.19h-1.53v-12.7Zm10.13,2.1h-7.22v-1.24H789V938.1h1.51v1.22h2.81Zm-5.37,3a1,1,0,0,0,.43.8,2.32,2.32,0,0,0,1.35.36,2.37,2.37,0,0,0,1.4-.39,1,1,0,0,0,.37-.77,1,1,0,0,0-.4-.8,2.33,2.33,0,0,0-1.37-.36,2.42,2.42,0,0,0-1.35.36A1,1,0,0,0,788,943.57Zm-1.47,0a2.07,2.07,0,0,1,.91-1.73,4,4,0,0,1,2.34-.63,3.94,3.94,0,0,1,2.32.63,2.06,2.06,0,0,1,.91,1.73,2,2,0,0,1-.94,1.75,4.07,4.07,0,0,1-2.29.6,4,4,0,0,1-2.38-.65A2.06,2.06,0,0,1,786.51,943.57Zm10.15-5.11v3.22h1.85V943h-1.85v3.31h-1.53v-7.88Zm-9.54,10.61a1.9,1.9,0,0,1,1.15-1.75,8.6,8.6,0,0,1,3.78-.64,8.5,8.5,0,0,1,3.77.64,1.9,1.9,0,0,1,0,3.49,8.36,8.36,0,0,1-3.77.64,8.46,8.46,0,0,1-3.78-.64A1.89,1.89,0,0,1,787.12,949.07Zm1.53,0a.79.79,0,0,0,.45.66,9.86,9.86,0,0,0,5.89,0,.75.75,0,0,0,.45-.66.74.74,0,0,0-.45-.65,9.86,9.86,0,0,0-5.89,0A.78.78,0,0,0,788.65,949.07Zm11.52-9.14v-1.31h6.55v1.31H804.2v1.14a3.26,3.26,0,0,0,2.76,3.52v1.35a5.09,5.09,0,0,1-3.48-2.14,5.16,5.16,0,0,1-3.53,2.29v-1.34a3.37,3.37,0,0,0,2.74-3.68v-1.14Zm10.26,7.42h-1.52v-4.62h-2.62v-1.3h2.62v-3h1.52Zm.23,3.87h-9.72V946.9h1.53v3h8.19Zm4.8-10.67h6.9v-1.93h1.53v6.51h-10v-6.51h1.53Zm6.9,3.27v-2h-6.9v2ZM813.27,948v-1.33h11.28V948h-4.91v3.33h-1.51V948Zm24-8.14H833.1c.18,1.26,2.31,2,4.27,2.12v1.29a7.89,7.89,0,0,1-5-1.89,7.92,7.92,0,0,1-5.05,1.89V942c2-.13,4.09-.86,4.27-2.12h-4.09v-1.28h9.77Zm-10.61,5.69V944.3h11.44v1.29Zm.6,3.53a1.87,1.87,0,0,1,1-1.71,8.72,8.72,0,0,1,4.11-.72,8.62,8.62,0,0,1,4.1.72,1.94,1.94,0,0,1,0,3.41,8.65,8.65,0,0,1-4.1.7,8.75,8.75,0,0,1-4.11-.7A1.86,1.86,0,0,1,827.23,949.12Zm1.53,0a.78.78,0,0,0,.43.68,7.37,7.37,0,0,0,3.18.45,7.26,7.26,0,0,0,3.17-.45.78.78,0,0,0,.44-.68.8.8,0,0,0-.44-.69,7.26,7.26,0,0,0-3.17-.45,7.37,7.37,0,0,0-3.18.45A.81.81,0,0,0,828.76,949.12Zm17.88-4.23h-6.15v-6.27h6.15v1.07h2.59v-1.23h1.52v7.37h-1.52v-2h-2.59Zm0-3.91v1.54h2.59V941Zm-1.5,2.62v-3.67H842v3.67Zm.92,7.85a7.64,7.64,0,0,1-3.86-.79,2.19,2.19,0,0,1,0-3.81,9.74,9.74,0,0,1,7.73,0,2.18,2.18,0,0,1,0,3.81A7.65,7.65,0,0,1,846.06,951.45Zm0-4.1a6.16,6.16,0,0,0-2.91.53,1.05,1.05,0,0,0-.55.87,1,1,0,0,0,.55.86,8.11,8.11,0,0,0,5.82,0,1,1,0,0,0,.55-.86,1.05,1.05,0,0,0-.55-.87A6.1,6.1,0,0,0,846.06,947.35Zm11.08-.21a5.9,5.9,0,0,1-3.67,3.17v-1.4c1.52-.7,2.91-2,2.91-5.53v-4.76h1.51v4.76c0,3.54,1.39,4.81,2.9,5.53v1.4A6,6,0,0,1,857.14,947.14Zm7-8.68v12.7h-1.52v-6.79h-3V943h3v-4.58Zm3,13.67v-.77c.61,0,.91-.37.91-1h-.86v-1.85H869v2C869,951.47,868.32,952,867.19,952.13Zm11.7-5a6,6,0,0,1-3.67,3.17v-1.4c1.52-.7,2.9-2,2.9-5.53v-4.76h1.51v4.76c0,3.54,1.4,4.81,2.91,5.53v1.4A6,6,0,0,1,878.89,947.14Zm6.79-8.68v5.18h2V945h-2v6.19h-1.53v-12.7Zm3.34,3.19a3.16,3.16,0,0,1,1.13-2.57,3.53,3.53,0,0,1,2.2-.7,3.47,3.47,0,0,1,2.2.7,2.94,2.94,0,0,1,1.08,1.92h2.29v-2.54h1.53v6.71h-1.53V942.3h-2.28a2.87,2.87,0,0,1-1.09,1.93,3.41,3.41,0,0,1-2.2.71,3.47,3.47,0,0,1-2.2-.71A3.12,3.12,0,0,1,889,941.65Zm1.49,0a1.93,1.93,0,0,0,.61,1.53,1.77,1.77,0,0,0,1.23.45,1.84,1.84,0,0,0,1.25-.45,1.93,1.93,0,0,0,.6-1.53,2,2,0,0,0-.6-1.52,1.88,1.88,0,0,0-1.25-.44,1.81,1.81,0,0,0-1.23.44A2,2,0,0,0,890.51,941.65Zm7.41,5.67v-1.48h1.53v5.45H890v-5.45h1.52v1.48Zm0,1.31h-6.44V950h6.44Zm4.57-8.6v-1.34h6.87V940h-2.7v3.42c0,3.38,1.35,4.76,2.82,5.46v1.4a6.2,6.2,0,0,1-3.56-3.13,6.37,6.37,0,0,1-3.57,3.13v-1.4c1.44-.69,2.8-2.08,2.8-5.46V940Zm10.06-1.57v5.18h2V945h-2v6.19H911v-12.7Zm13.71,1.44H918v1.87h8.33V943h-9.84v-4.42h9.77Zm-10.61,5.69V944.3h11.44v1.29Zm.6,3.53a1.86,1.86,0,0,1,1-1.71,8.74,8.74,0,0,1,4.12-.72,8.62,8.62,0,0,1,4.1.72,1.94,1.94,0,0,1,0,3.41,8.65,8.65,0,0,1-4.1.7,8.77,8.77,0,0,1-4.12-.7A1.85,1.85,0,0,1,916.25,949.12Zm1.53,0a.78.78,0,0,0,.43.68,7.34,7.34,0,0,0,3.18.45,7.21,7.21,0,0,0,3.16-.45.77.77,0,0,0,.45-.68.79.79,0,0,0-.45-.69,7.21,7.21,0,0,0-3.16-.45,7.34,7.34,0,0,0-3.18.45A.81.81,0,0,0,917.78,949.12Zm13.66-7v1h8.33v1.24h-4.23v1.13h5v1.27H929.09v-1.27H934v-1.13h-4.1v-3.48h8.24v-1h-8.24v-1.24h9.77v3.47Zm6.73,9.28v-2.28h-8.33v-1.28h9.86v3.56Zm15-11.47H949c.19,1.26,2.31,2,4.28,2.12v1.29a7.87,7.87,0,0,1-5-1.89,8,8,0,0,1-5.06,1.89V942c2-.13,4.09-.86,4.27-2.12h-4.08v-1.28h9.77Zm-10.61,5.69V944.3H954v1.29Zm.6,3.53a1.86,1.86,0,0,1,1-1.71,8.74,8.74,0,0,1,4.12-.72,8.62,8.62,0,0,1,4.1.72,1.94,1.94,0,0,1,0,3.41,8.65,8.65,0,0,1-4.1.7,8.77,8.77,0,0,1-4.12-.7A1.85,1.85,0,0,1,943.13,949.12Zm1.52,0a.79.79,0,0,0,.44.68,7.34,7.34,0,0,0,3.18.45,7.21,7.21,0,0,0,3.16-.45.77.77,0,0,0,.45-.68.79.79,0,0,0-.45-.69,7.21,7.21,0,0,0-3.16-.45,7.34,7.34,0,0,0-3.18.45A.82.82,0,0,0,944.65,949.12Zm19-2a6,6,0,0,1-3.67,3.17v-1.4c1.52-.7,2.9-2,2.9-5.53v-4.76h1.51v4.76c0,3.54,1.4,4.81,2.91,5.53v1.4A6,6,0,0,1,963.6,947.14Zm6.79-8.68v5.18h2V945h-2v6.19h-1.53v-12.7Zm5.44,1.63h6.74v-1.47h1.52v5.5h-4.16v1.31h5v1.32H973.48v-1.32h4.94v-1.31h-4.1v-5.5h1.51Zm6.74,2.75v-1.47h-6.74v1.47Zm-6.74,4.9v2.16h8.49v1.32h-10v-3.48Zm15.6-7.71v-1.34h5.12V940h-1.8v4.33c0,2.88.74,3.93,2,4.55v1.4A4.71,4.71,0,0,1,994,948a4.46,4.46,0,0,1-2.69,2.34v-1.38c1.19-.62,2-1.66,2-4.55V940Zm4.41,4.7v-1.34h1.87v-4.84h1.49V951h-1.49v-6.28Zm6,6.43h-1.48v-12.7h1.48Zm13.2-10.81h-4c.52,1,2.48,1.47,4.16,1.54v1.23a8.1,8.1,0,0,1-5-1.63c-1.1,1.1-3,1.56-5,1.63v-1.23c1.71,0,3.67-.53,4.16-1.54h-4v-1.24h4.11V938h1.51v1.1H1015ZM1004.43,945v-1.26h11.44V945h-5V946H1015v3.26h-8.25v.87h8.54v1.19h-10.06V948h8.25v-.87h-8.25V946h4.12V945Z" transform="translate(-500 -95.33)"/><path class="cls-15" d="M960,891.33l-20.79-20.25h41.58Z" transform="translate(-500 -95.33)"/></svg>